# AST/ASF file generated using VICON BodyLanguage
# -----------------------------------------------
:version 1.10
:name VICON
:units
  mass 1.0
  length 0.1
  angle deg
:documentation
   .ast/.asf automatically generated from VICON data using
   VICON BodyBuilder and BodyLanguage model FULLBODY5.MOD
:root
   order TX TY TZ RZ RY RX
   axis XYZ
   position 0 0 0  
   orientation 0 -0 0 
:bonedata
  begin
     id 1 
     name lhipjoint
     direction 0.969109 -0.218487 0.11442 
     length 0.544217 
     axis 0 -0 0  XYZ
  end
  begin
     id 2 
     name lfemur
     direction 0.173648 -0.984808 0  
     length 1.81499  
     axis 0 -0 10  XYZ
    dof rx ry rz
    limits (-180.0 180.0)
           (-180.0 180.0)
           (-180.0 180.0)
  end
  begin
     id 3 
     name ltibia
     direction 0.173515 -0.984831 0   
     length 1.55296   
     axis 0 -0 10   XYZ
    dof rx ry rz
    limits (-180.0 180.0)
           (-180.0 180.0)
           (-180.0 180.0)
  end
  begin
     id 4 
     name lfoot
     direction 7.36097e-012 -0.333012 0.942922   
     length 0.509062   
     axis -90 -1.73656e-015 10   XYZ
    dof rx ry rz
    limits (-180.0 180.0)
           (-180.0 180.0)
           (-180.0 180.0)
  end
  begin
     id 5 
     name ltoes
     direction 7.7847e-012 -4.42403e-011 1   
     length 0.249732   
     axis -90 -1.73656e-015 10   XYZ
    dof rx ry rz
    limits (-180.0 180.0)
           (-180.0 180.0)
           (-180.0 180.0)
  end
  begin
     id 6 
     name rhipjoint
     direction -0.966745 -0.226554 0.118645   
     length 0.524838  
     axis 0 -0 0  XYZ 
  end
  begin
     id 7 
     name rfemur
     direction -0.173648 -0.984808 0   
     length 1.84625   
     axis 0 -0 -10   XYZ
    dof rx ry rz
    limits (-180.0 180.0)
           (-180.0 180.0)
           (-180.0 180.0)
  end
  begin
     id 8 
     name rtibia
     direction -0.173714 -0.984796 0   
     length 1.577   
     axis 0 -0 -10   XYZ
    dof rx ry rz
    limits (-180.0 180.0)
           (-180.0 180.0)
           (-180.0 180.0)
 end
 begin
     id 9 
     name rfoot
     direction -0.0183819 -0.0406144 0.999006   
     length 0.490111  
     axis -90 1.73656e-015 -10   XYZ
    dof rx ry rz
    limits (-180.0 180.0)
           (-180.0 180.0)
           (-180.0 180.0)
  end
  begin
     id 10 
     name rtoes
     direction -7.79087e-012 -4.42375e-011 1   
     length 0.245053   
     axis -90 1.73656e-015 -10   XYZ
    dof rx ry rz
    limits (-180.0 180.0)
           (-180.0 180.0)
           (-180.0 180.0)
  end
  begin
     id 11 
     name lowerback
     direction -0.0664844 0.980601 0.184393   
     length 0.458979   
     axis 0 -0 0   XYZ
    dof rx ry rz
    limits (-180.0 180.0)
           (-180.0 180.0)
           (-180.0 180.0)
  end
  begin
     id 12 
     name upperback
     direction 0.0135995 0.999573 0.02588   
     length 0.463983   
     axis 0 -0 0   XYZ
    dof rx ry rz
    limits (-180.0 180.0)
           (-180.0 180.0)
           (-180.0 180.0)
  end
  begin
     id 13 
     name thorax
     direction 0.0468402 0.997311 -0.0563691   
     length 0.482746   
     axis 0 -0 0   XYZ
    dof rx ry rz
    limits (-180.0 180.0)
           (-180.0 180.0)
           (-180.0 180.0)
  end
  begin
     id 14 
     name lowerneck
     direction -0.00174311 0.988586 -0.150647   
     length 0.364383   
     axis 0 -0 0   XYZ
    dof rx ry rz
    limits (-180.0 180.0)
           (-180.0 180.0)
           (-180.0 180.0)
  end
  begin
     id 15 
     name upperneck
     direction -0.02653 0.999379 -0.0231908   
     length 0.361006   
     axis 0 -0 0   XYZ
    dof rx ry rz
    limits (-180.0 180.0)
           (-180.0 180.0)
           (-180.0 180.0)
  end
  begin
     id 16
     name head
     direction -0.00819207 0.999941 0.00714285  
     length 0.378714  
     axis 0 -0 0   XYZ
    dof rx ry rz
    limits (-180.0 180.0)
           (-180.0 180.0)
           (-180.0 180.0)
  end
  begin
     id 17 
     name lshoulderjoint
     direction 0.981627 -0.190809 0  
     length 0.612969  
     axis 0 -0 -11   XYZ
    dof rx ry rz
    limits (-180.0 180.0)
           (-180.0 180.0)
           (-180.0 180.0)
  end
  begin
     id 18 
     name lhumerus
     direction 0.48481 -0.87462 -9.72962e-027   
     length 1.19637   
     axis -180 5.14477e-009 -151   XYZ
    dof rx ry rz
    limits (-180.0 180.0)
           (-180.0 180.0)
           (-180.0 180.0)
  end
  begin
     id 19
     name lradius
     direction 0.48481 -0.87462 -2.35761e-026   
     length 0.637735   
     axis -180 5.14477e-009 -151   XYZ
    dof rx ry rz
    limits (-180.0 180.0)
           (-180.0 180.0)
           (-180.0 180.0)
  end
  begin
     id 20
     name lwrist
     direction 0.48481 -0.87462 -5.51856e-026   
     length 0.318868   
     axis -180 5.14477e-009 -151   XYZ
    dof rx ry rz
    limits (-180.0 180.0)
           (-180.0 180.0)
           (-180.0 180.0)
  end
  begin
     id 21 
     name lhand
     direction 0.477747 -0.861928 -0.169816   
     length 0.29526   
     axis -180 5.14477e-009 -151   XYZ
    dof rx ry rz
    limits (-180.0 180.0)
           (-180.0 180.0)
           (-180.0 180.0)
  end
  begin
     id 22 
     name rshoulderjoint
     direction -0.981627 -0.190809 0   
     length 0.572347  
     axis 0 -0 11   XYZ 
    dof rx ry rz
    limits (-180.0 180.0)
           (-180.0 180.0)
           (-180.0 180.0)
  end
  begin
     id 23 
     name rhumerus
     direction -0.48481 -0.87462 1.64836e-026  
     length 1.28846   
     axis 180 5.14477e-009 151   XYZ
    dof rx ry rz
    limits (-180.0 180.0)
           (-180.0 180.0)
           (-180.0 180.0)
  end
  begin
     id 24 
     name rradius
     direction -0.48481 -0.87462 2.86827e-026   
     length 0.62107   
     axis 180 5.14477e-009 151   XYZ
    dof rx ry rz
    limits (-180.0 180.0)
           (-180.0 180.0)
           (-180.0 180.0)
  end
  begin
     id 25 
     name rwrist
     direction -0.48481 -0.87462 5.20942e-026   
     length 0.310535   
     axis 180 5.14477e-009 151   XYZ
    dof rx ry rz
    limits (-180.0 180.0)
           (-180.0 180.0)
           (-180.0 180.0)
  end
  begin
     id 26
     name rhand
     direction -0.477664 -0.861515 -0.172133   
     length 0.291321   
     axis 180 5.14477e-009 151   XYZ
    dof rx ry rz
    limits (-180.0 180.0)
           (-180.0 180.0)
           (-180.0 180.0)
  end
:hierarchy
  begin
    root lhipjoint rhipjoint lowerback 
    lhipjoint lfemur
    lfemur ltibia
    ltibia lfoot
    lfoot ltoes
    rhipjoint rfemur
    rfemur rtibia
    rtibia rfoot
    rfoot rtoes
    lowerback upperback
    upperback thorax
    thorax lowerneck lshoulderjoint rshoulderjoint
    lowerneck upperneck
    upperneck head
    lshoulderjoint lhumerus
    lhumerus lradius
    lradius lwrist
    lwrist lhand
    rshoulderjoint rhumerus
    rhumerus rradius
    rradius rwrist
    rwrist rhand
  end

:FULLY-SPECIFIED
:DEGREES
583
root 10.4238 3.69683 -0.426036 89.9345 -73.4031 88.2509
lowerback -23.6417 -0.563773 -6.03223
upperback -5.38844 0.238633 0.933157
thorax 7.16752 -0.153182 4.5331
lowerneck 12.915 -2.99106 0.0839115
upperneck 8.21167 -4.24121 -4.05276
head 0.345689 -2.26566 -1.12434
rshoulderjoint 0.860503 -1.51944 -40.5289
rhumerus 175.386 -74.2044 -181.124
rradius 30.7067 4.45278e-014 5.48646e-014
rwrist -3.97936e-016 -2.45853 5.01399e-014
rhand 27.8997 2.55716 -3.89088
lshoulderjoint -0.668447 -1.249 39.158
lhumerus 188.955 82.5936 207.018
lradius 33.1819 -2.38542e-014 -6.36111e-014
lwrist -2.67469e-014 -13.1948 -8.49368e-014
lhand 24.2886 12.0179 -20.9758
rfemur -16.2365 15.1642 6.23065
rtibia 1.23246e-014 -3.49861e-014 -4.77083e-015
rfoot -182.078 -33.0196 165.299
rtoes 4.65156e-014 -4.89942e-014 -5.16716e-014
lfemur -12.4177 -13.2825 -12.7731
ltibia -2.38542e-014 7.15625e-014 3.97569e-015
lfoot -5.84307 6.04036 14.9845
ltoes -8.60738e-014 -6.80589e-014 6.44062e-014
584
root 10.4224 3.69666 -0.425778 90.0647 -73.3446 88.3721
lowerback -23.6207 -0.560597 -6.0388
upperback -5.44556 0.239081 0.911174
thorax 7.09331 -0.150799 4.51178
lowerneck 12.9796 -2.98697 0.132924
upperneck 8.17015 -4.23152 -4.04091
head 0.321685 -2.25827 -1.1277
rshoulderjoint 0.857377 -1.51756 -40.4699
rhumerus 175.47 -75.8712 -182.202
rradius 30.3563 -1.90833e-013 3.02153e-014
rwrist -7.35722e-014 -1.39791 2.39408e-013
rhand 28.1355 1.72175 -2.13487
lshoulderjoint -0.681799 -1.28168 39.0142
lhumerus 191.915 83.446 210.837
lradius 32.838 1.79701e-013 3.18055e-014
lwrist 1.8756e-013 -12.6865 -1.0025e-013
lhand 23.5533 11.6421 -20.9577
rfemur -16.283 15.2065 6.19592
rtibia 3.43897e-014 -1.59028e-014 -1.78906e-014
rfoot -182.029 -32.9932 165.256
rtoes 1.14102e-013 1.5107e-013 -1.39857e-013
lfemur -12.4551 -13.2802 -12.7785
ltibia 3.49861e-014 4.45278e-014 7.95139e-015
lfoot -5.84654 5.99239 15.0049
ltoes -2.63588e-013 4.22417e-014 -7.95139e-016
585
root 10.4209 3.69657 -0.425724 90.2073 -73.2929 88.5394
lowerback -23.6154 -0.557475 -6.02974
upperback -5.48467 0.236353 0.912105
thorax 7.04761 -0.150769 4.50628
lowerneck 13.0244 -2.98742 0.173029
upperneck 8.11093 -4.22753 -4.0517
head 0.294663 -2.25332 -1.13658
rshoulderjoint 0.80724 -1.44363 -40.217
rhumerus 176.253 -78.0812 -183.814
rradius 30.0286 -1.78111e-013 -3.18055e-015
rwrist 9.22362e-014 -0.0932651 1.7334e-013
rhand 28.1288 0.195576 -0.306703
lshoulderjoint -0.681496 -1.29509 38.7572
lhumerus 196.124 84.3926 215.874
lradius 32.4712 1.39944e-013 5.24792e-014
lwrist 2.67404e-014 -12.1627 -5.65311e-014
lhand 22.831 11.2168 -20.9383
rfemur -16.3246 15.2642 6.19984
rtibia 2.04748e-014 -3.49861e-014 -7.95139e-015
rfoot -181.997 -32.9706 165.229
rtoes 6.0033e-014 -1.53319e-013 -4.16205e-014
lfemur -12.4839 -13.263 -12.75
ltibia 3.49861e-014 2.22639e-014 1.11319e-014
lfoot -5.85593 6.0328 15.0414
ltoes -1.11319e-013 -4.48632e-014 -3.97569e-014
586
root 10.4196 3.69649 -0.425527 90.276 -73.2333 88.6223
lowerback -23.5971 -0.547707 -6.00871
upperback -5.53618 0.239444 0.890924
thorax 6.98119 -0.146961 4.47085
lowerneck 13.042 -3.00812 0.251674
upperneck 8.09984 -4.24436 -4.09157
head 0.285043 -2.25909 -1.1613
rshoulderjoint 0.737387 -1.33332 -39.9481
rhumerus 177.876 -80.2526 -186.301
rradius 29.7237 2.8625e-014 -5.4467e-014
rwrist 4.87091e-015 0.963617 -1.20878e-013
rhand 27.8301 -0.966631 1.34141
lshoulderjoint -0.727757 -1.39906 38.486
lhumerus 204.094 85.3959 224.695
lradius 32.0778 -4.6118e-014 3.53837e-014
lwrist -2.41775e-013 -11.8146 6.21446e-014
lhand 22.0525 11.0472 -20.9018
rfemur -16.3719 15.2967 6.19237
rtibia -7.37491e-014 3.18055e-014 1.39149e-014
rfoot -181.963 -32.9463 165.197
rtoes -6.79844e-014 1.01579e-013 7.75384e-014
lfemur -12.5241 -13.2702 -12.7264
ltibia -7.87187e-014 -1.43125e-014 -3.18055e-015
lfoot -5.84384 5.9829 15.0581
ltoes 1.28812e-013 7.01958e-015 3.89618e-014
587
root 10.4183 3.69642 -0.425362 90.36 -73.1621 88.7312
lowerback -23.6075 -0.539945 -5.98462
upperback -5.57399 0.240996 0.880993
thorax 6.94486 -0.145058 4.44616
lowerneck 13.1157 -3.00311 0.277477
upperneck 7.99447 -4.23565 -4.07369
head 0.239995 -2.25076 -1.15799
rshoulderjoint 0.653925 -1.19648 -39.6612
rhumerus 180.475 -82.3646 -189.81
rradius 29.4517 1.82882e-013 5.32743e-014
rwrist -6.96115e-015 1.86452 -8.79094e-014
rhand 27.3174 -1.91604 2.76517
lshoulderjoint -0.759683 -1.4816 38.1502
lhumerus 213.706 86.1665 235.148
lradius 31.6545 -1.1291e-013 -8.70677e-014
lwrist -6.84167e-015 -11.3025 -3.0002e-014
lhand 21.5072 10.5797 -20.6393
rfemur -16.4289 15.337 6.19352
rtibia -4.41302e-014 -9.54166e-015 -7.95139e-016
rfoot -181.914 -32.9242 165.155
rtoes 3.57812e-014 6.65307e-015 7.48673e-014
lfemur -12.5754 -13.2699 -12.6892
ltibia 4.77083e-015 -4.77083e-015 1.59028e-015
lfoot -5.84668 5.99178 15.0925
ltoes -4.17448e-015 1.37161e-014 1.27222e-014
588
root 10.4173 3.69634 -0.425209 90.4887 -73.0938 88.8259
lowerback -23.5996 -0.530644 -6.04931
upperback -5.60405 0.264996 0.880164
thorax 6.90353 -0.133178 4.48898
lowerneck 13.059 -3.04476 0.281138
upperneck 8.02897 -4.28809 -4.11263
head 0.257689 -2.27769 -1.17009
rshoulderjoint 0.597912 -1.10332 -39.4566
rhumerus 184.79 -84.3503 -195.093
rradius 29.1997 9.70069e-014 4.96962e-014
rwrist -4.79029e-014 2.49605 -5.57126e-015
rhand 26.6264 -2.52914 3.91605
lshoulderjoint -0.789623 -1.56085 37.8389
lhumerus 229.043 86.9042 251.42
lradius 31.1825 -4.92986e-014 -9.42239e-014
lwrist 2.48063e-013 -10.8111 -6.557e-014
lhand 21.0081 10.292 -20.2738
rfemur -16.4918 15.3716 6.13203
rtibia -3.3197e-014 -3.18055e-015 2.38542e-015
rfoot -181.902 -32.8983 165.135
rtoes 3.57812e-015 2.15619e-014 1.21805e-013
lfemur -12.6279 -13.2737 -12.7123
ltibia -2.94201e-014 -2.38542e-014 -1.11319e-014
lfoot -5.84724 6.021 15.1179
ltoes 5.88403e-014 4.9895e-014 -5.40694e-014
589
root 10.4159 3.6961 -0.424963 90.6249 -73.0348 88.9521
lowerback -23.5571 -0.493825 -6.02631
upperback -5.68277 0.302756 0.80863
thorax 6.79103 -0.111056 4.40624
lowerneck 13.1223 -3.08128 0.410261
upperneck 8.02418 -4.32142 -4.10659
head 0.242454 -2.29067 -1.18759
rshoulderjoint 0.505615 -0.942607 -39.2108
rhumerus 195.196 -86.2172 -206.609
rradius 28.965 2.40132e-013 1.50679e-013
rwrist 6.72739e-014 2.87544 2.8263e-014
rhand 25.8873 -2.85334 4.83248
lshoulderjoint -0.833205 -1.65173 37.7731
lhumerus 243.758 87.1785 267.225
lradius 30.6897 -1.68569e-013 -1.57437e-013
lwrist 3.12938e-013 -10.097 -4.18462e-014
lhand 20.8618 9.44283 -19.647
rfemur -16.5392 15.4169 6.09719
rtibia 3.77691e-014 4.13472e-014 2.38542e-015
rfoot -181.848 -32.8759 165.079
rtoes -4.33351e-014 1.34403e-013 3.92848e-014
lfemur -12.6632 -13.2683 -12.718
ltibia -4.77083e-015 -2.70347e-014 -7.95139e-015
lfoot -5.8686 6.02435 15.1512
ltoes 1.29409e-013 2.11209e-015 3.18055e-014
